<svg width="60" height="65" viewBox="0 0 60 65" fill="none" xmlns="http://www.w3.org/2000/svg">
<path d="M16.1791 64.9006C16.4632 64.9004 16.736 64.7889 16.9393 64.5898C17.1427 64.3907 17.2606 64.1197 17.2679 63.8345C17.463 57.2716 13.7696 54.0701 13.6113 53.9375C13.3896 53.7621 13.1087 53.68 12.8279 53.7084C12.5471 53.7368 12.2882 53.8735 12.1057 54.0897C11.9232 54.3059 11.8314 54.5847 11.8496 54.8675C11.8678 55.1503 11.9946 55.415 12.2033 55.6059C12.338 55.7227 15.252 58.3201 15.0894 63.7669C15.0851 63.9106 15.109 64.0536 15.1597 64.188C15.2105 64.3223 15.2871 64.4453 15.3852 64.5499C15.4833 64.6545 15.601 64.7387 15.7315 64.7977C15.862 64.8566 16.0028 64.8892 16.1459 64.8935L16.1791 64.9006Z" fill="#62667C"/>
<path d="M1.28242 38.2739C1.32539 38.2738 1.36832 38.2711 1.41098 38.266C1.69785 38.2321 1.95959 38.0853 2.13867 37.8577C2.31775 37.6302 2.39952 37.3405 2.36602 37.0525C1.70571 31.4115 3.52658 28.6157 3.54495 28.5885C3.70929 28.3497 3.77245 28.0553 3.72054 27.7698C3.66863 27.4843 3.5059 27.2313 3.26815 27.0663C3.03039 26.9013 2.7371 26.8379 2.45278 26.89C2.16846 26.9421 1.9164 27.1055 1.75207 27.3442C1.65674 27.4812 -0.564688 30.7688 0.201442 37.308C0.232873 37.5738 0.360212 37.8189 0.559391 37.9969C0.758569 38.1749 1.01578 38.2734 1.28242 38.2739Z" fill="#62667C"/>
<path d="M44.4236 38.2739C44.5879 38.274 44.7501 38.2368 44.898 38.1651C45.046 38.0934 45.1759 37.9891 45.2781 37.8599C45.3803 37.7307 45.4521 37.58 45.4881 37.4191C45.5241 37.2581 45.5235 37.0911 45.4862 36.9304C44.3352 31.9762 39.7594 30.3947 37.5004 30.2507C37.212 30.2318 36.9279 30.3288 36.7107 30.5202C36.4934 30.7117 36.3608 30.9819 36.342 31.2715C36.3232 31.5611 36.4198 31.8463 36.6105 32.0644C36.8011 32.2825 37.0703 32.4157 37.3587 32.4345C37.5704 32.4495 42.2975 32.8429 43.3627 37.4274C43.4185 37.668 43.5537 37.8825 43.7463 38.0362C43.9389 38.1898 44.1776 38.2736 44.4236 38.2739Z" fill="#62667C"/>
<path d="M55.9592 41.3736C56.2254 41.374 56.4825 41.2761 56.6816 41.0987C60.2429 37.9314 59.7007 32.6743 59.6762 32.4521C59.6443 32.1637 59.4996 31.8998 59.2739 31.7185C59.0482 31.5372 58.76 31.4533 58.4728 31.4853C58.1855 31.5173 57.9227 31.6626 57.7421 31.8892C57.5615 32.1158 57.478 32.4051 57.5099 32.6936C57.5142 32.7366 57.941 37.0551 55.236 39.4602C55.0703 39.6075 54.9532 39.8018 54.9002 40.0175C54.8472 40.2332 54.8609 40.46 54.9394 40.6677C55.0179 40.8754 55.1576 41.0542 55.3397 41.1803C55.5219 41.3064 55.738 41.3738 55.9592 41.3736Z" fill="#62667C"/>
<path d="M31.7999 43.3801C33.8064 43.3801 35.4329 42.0941 35.4329 40.5078C35.4329 38.9215 33.8064 37.6355 31.7999 37.6355C29.7935 37.6355 28.1669 38.9215 28.1669 40.5078C28.1669 42.0941 29.7935 43.3801 31.7999 43.3801Z" fill="#62667C"/>
<path d="M29.5563 57.1713C31.3806 55.508 32.223 53.4558 31.4379 52.5877C30.6527 51.7196 28.5373 52.3643 26.7129 54.0276C24.8886 55.691 24.0462 57.7431 24.8314 58.6112C25.6166 59.4794 27.732 58.8347 29.5563 57.1713Z" fill="#62667C"/>
<path d="M47.5611 54.8511C48.5034 52.931 48.0346 50.7645 46.5138 50.0121C44.993 49.2597 42.9963 50.2064 42.0539 52.1265C41.1116 54.0467 41.5805 56.2132 43.1012 56.9656C44.622 57.7179 46.6187 56.7713 47.5611 54.8511Z" fill="#62667C"/>
<path d="M14.6939 48.9003C16.3607 47.2268 15.951 44.1021 13.7788 41.9211C11.6065 39.7401 8.49437 39.3288 6.82755 41.0023C5.16073 42.6758 5.57044 45.8006 7.74267 47.9815C9.9149 50.1625 13.0271 50.5739 14.6939 48.9003Z" fill="#62667C"/>
<path d="M20.1423 28.2182C23.9932 27.3959 26.6326 24.452 26.0375 21.6427C25.4424 18.8335 21.8383 17.2228 17.9873 18.0451C14.1364 18.8674 11.497 21.8113 12.0921 24.6206C12.6872 27.4298 16.2914 29.0405 20.1423 28.2182Z" fill="#62667C"/>
<path d="M4.73524 8.55197C7.14121 10.3819 10.8573 11.556 15.029 11.556C22.288 11.556 28.1678 8.00228 28.1678 3.62231C28.1672 3.18873 28.1084 2.7572 27.9929 2.33941C26.4566 1.31461 24.733 0.606084 22.9221 0.254882C21.1111 -0.0963198 19.2487 -0.0832164 17.4429 0.293434C13.9849 1.0678 10.7755 2.70053 8.10849 5.0422C6.86836 6.09416 5.73812 7.27014 4.73524 8.55197Z" fill="#62667C"/>
<path d="M43.8008 18.14C44.2101 18.14 44.4664 18.1206 44.5136 18.1171C44.8017 18.0938 45.0688 17.9566 45.2561 17.7356C45.4434 17.5146 45.5356 17.228 45.5124 16.9387C45.4892 16.6495 45.3525 16.3813 45.1324 16.1933C44.9123 16.0052 44.6268 15.9126 44.3387 15.9359C44.2626 15.9421 39.2548 16.2872 36.2244 13.0812C36.0253 12.8708 35.751 12.7484 35.462 12.741C35.173 12.7336 34.893 12.8418 34.6834 13.0417C34.4738 13.2416 34.3519 13.517 34.3446 13.8071C34.3372 14.0973 34.4449 14.3785 34.644 14.5889C37.6841 17.8028 42.0867 18.14 43.8008 18.14Z" fill="#62667C"/>
</svg>
