<svg width="158" height="92" viewBox="0 0 158 92" fill="none" xmlns="http://www.w3.org/2000/svg">
<path d="M43.103 91.3639C43.8472 91.3635 44.5618 91.0708 45.0946 90.5481C45.6274 90.0254 45.9363 89.3141 45.9554 88.5656C46.4664 71.3379 36.7909 62.9339 36.3762 62.5858C35.7953 62.1255 35.0595 61.9099 34.3238 61.9845C33.5881 62.059 32.9098 62.4178 32.4318 62.9853C31.9538 63.5529 31.7133 64.2849 31.761 65.0272C31.8087 65.7696 32.1408 66.4644 32.6874 66.9653C33.0403 67.2719 40.6743 74.0901 40.2482 88.3881C40.2369 88.7651 40.2995 89.1407 40.4325 89.4934C40.5655 89.846 40.7662 90.1689 41.0232 90.4435C41.2802 90.7181 41.5885 90.9391 41.9304 91.0939C42.2723 91.2486 42.6411 91.3341 43.0159 91.3454L43.103 91.3639Z" fill="#62667C"/>
<path d="M4.07789 21.469C4.19046 21.4687 4.30291 21.4617 4.41468 21.4482C5.16621 21.3593 5.85189 20.9738 6.32103 20.3765C6.79017 19.7791 7.00439 19.0188 6.91661 18.2627C5.1868 3.45528 9.95696 -3.88388 10.0051 -3.95533C10.4356 -4.58195 10.6011 -5.35495 10.4651 -6.1043C10.3291 -6.85365 9.90277 -7.51795 9.27993 -7.95108C8.65709 -8.38421 7.88873 -8.55067 7.1439 -8.41385C6.39906 -8.27704 5.73875 -7.84815 5.30823 -7.22154C5.05849 -6.86196 -0.761011 1.76801 1.24603 18.9335C1.32837 19.6313 1.66197 20.2746 2.18376 20.7418C2.70555 21.209 3.37938 21.4677 4.07789 21.469Z" fill="#62667C"/>
<path d="M117.096 21.469C117.526 21.4692 117.951 21.3716 118.338 21.1834C118.726 20.9952 119.067 20.7213 119.334 20.3822C119.602 20.0431 119.79 19.6475 119.884 19.225C119.979 18.8026 119.977 18.3641 119.879 17.9423C116.864 4.93744 104.877 0.78611 98.9588 0.408088C98.2032 0.35857 97.459 0.613066 96.8899 1.11559C96.3208 1.6181 95.9734 2.32749 95.9242 3.08768C95.875 3.84786 96.1279 4.59658 96.6274 5.16913C97.1269 5.74168 97.832 6.09116 98.5876 6.14067C99.1421 6.17986 111.526 7.2125 114.316 19.247C114.463 19.8784 114.817 20.4416 115.321 20.845C115.826 21.2483 116.451 21.4683 117.096 21.469Z" fill="#62667C"/>
<path d="M147.316 29.6057C148.013 29.6066 148.687 29.3499 149.208 28.8842C158.538 20.57 157.117 6.76991 157.053 6.18674C156.97 5.42961 156.59 4.73689 155.999 4.26096C155.408 3.78503 154.653 3.56487 153.9 3.64893C153.148 3.73299 152.459 4.11437 151.986 4.70918C151.513 5.30399 151.294 6.0635 151.378 6.82062C151.389 6.93357 152.507 18.2696 145.421 24.5831C144.987 24.9696 144.68 25.4798 144.541 26.046C144.403 26.6122 144.438 27.2075 144.644 27.7527C144.85 28.2979 145.216 28.7673 145.693 29.0982C146.17 29.4292 146.736 29.6062 147.316 29.6057Z" fill="#62667C"/>
<path d="M84.0251 34.8727C89.2814 34.8727 93.5425 31.497 93.5425 27.3329C93.5425 23.1689 89.2814 19.7932 84.0251 19.7932C78.7688 19.7932 74.5077 23.1689 74.5077 27.3329C74.5077 31.497 78.7688 34.8727 84.0251 34.8727Z" fill="#62667C"/>
<path d="M78.1475 71.0747C82.9267 66.7084 85.1336 61.3215 83.0767 59.0427C81.0197 56.7639 75.4779 58.4562 70.6987 62.8225C65.9195 67.1888 63.7126 72.5757 65.7695 74.8545C67.8265 77.1333 73.3683 75.441 78.1475 71.0747Z" fill="#62667C"/>
<path d="M125.315 64.9842C127.784 59.9439 126.555 54.2568 122.571 52.2818C118.587 50.3068 113.356 52.7918 110.888 57.8321C108.419 62.8725 109.647 68.5595 113.631 70.5345C117.615 72.5095 122.846 70.0246 125.315 64.9842Z" fill="#62667C"/>
<path d="M39.2122 49.3634C43.5788 44.9703 42.5054 36.768 36.8148 31.0429C31.1242 25.3178 22.9712 24.238 18.6046 28.631C14.238 33.0241 15.3113 41.2264 21.0019 46.9515C26.6926 52.6766 34.8456 53.7564 39.2122 49.3634Z" fill="#62667C"/>
</svg>
