<svg width="499" height="119" viewBox="0 0 499 119" fill="none" xmlns="http://www.w3.org/2000/svg">
<path d="M-89.4329 -133.031C-79.0392 -104.248 -63.5924 -73.0232 -41.8623 -54.8269C6.3271 -14.4664 16.6544 -1.20786 34.4437 79.5131C52.233 160.234 134.844 92.1942 134.844 92.1942C134.844 92.1942 159.514 75.4711 200.867 98.8568C212.312 104.391 225.072 106.589 237.698 105.201C272.12 103.469 336.839 89.0998 389.573 13.2055C465.305 -95.7648 509.48 -128.056 496.861 -224.923C484.243 -321.789 469.894 -371.951 360.89 -388.674C286.58 -400.067 225.352 -439.621 193.869 -463.628C191.733 -465.264 189.553 -466.812 187.328 -468.285C174.389 -476.924 159.872 -482.898 144.619 -485.859C129.366 -488.819 113.68 -488.709 98.4703 -485.534C69.3368 -479.006 42.2979 -465.239 19.8293 -445.491C9.38311 -436.616 -0.136444 -426.694 -8.582 -415.88C-23.0081 -397.421 -34.3139 -376.702 -42.0464 -354.554C-52.9066 -322.581 -65.8702 -291.368 -80.8513 -261.123C-89.03 -245.551 -94.5903 -228.726 -97.3073 -211.331C-101.142 -184.978 -98.4373 -158.08 -89.4329 -133.031Z" fill="#828A9E"/>
</svg>
